<svg width="837" height="391" viewBox="0 0 837 391" fill="none" xmlns="http://www.w3.org/2000/svg">
<circle opacity="0.3" cx="390" cy="134.625" r="9" fill="#062EFE"/>
<circle cx="390" cy="134.625" r="3" fill="#062EFE"/>
<circle opacity="0.3" cx="349" cy="158.625" r="9" fill="#062EFE"/>
<circle cx="349" cy="158.625" r="3" fill="#062EFE"/>
<circle opacity="0.3" cx="365" cy="225.625" r="9" fill="#062EFE"/>
<circle cx="365" cy="225.625" r="3" fill="#062EFE"/>
<circle opacity="0.3" cx="395" cy="210.625" r="9" fill="#062EFE"/>
<circle cx="395" cy="210.625" r="3" fill="#062EFE"/>
<circle opacity="0.3" cx="489" cy="141.625" r="9" fill="#062EFE"/>
<circle cx="489" cy="141.625" r="3" fill="#062EFE"/>
<circle opacity="0.3" cx="544" cy="91.625" r="9" fill="#062EFE"/>
<circle cx="544" cy="91.625" r="3" fill="#062EFE"/>
<circle opacity="0.3" cx="667" cy="72.625" r="9" fill="#062EFE"/>
<circle cx="667" cy="72.625" r="3" fill="#062EFE"/>
<circle opacity="0.3" cx="608" cy="11.625" r="9" fill="#062EFE"/>
<circle cx="608" cy="11.625" r="3" fill="#062EFE"/>
<circle opacity="0.3" cx="478" cy="20.625" r="9" fill="#062EFE"/>
<circle cx="478" cy="20.625" r="3" fill="#062EFE"/>
<circle opacity="0.3" cx="525" cy="267.625" r="9" fill="#062EFE"/>
<circle cx="525" cy="267.625" r="3" fill="#062EFE"/>
<circle opacity="0.3" cx="707" cy="160.625" r="9" fill="#062EFE"/>
<circle cx="707" cy="160.625" r="3" fill="#062EFE"/>
<circle opacity="0.3" cx="719" cy="171.625" r="9" fill="#062EFE"/>
<circle cx="719" cy="171.625" r="3" fill="#062EFE"/>
<circle opacity="0.3" cx="660" cy="169.625" r="9" fill="#062EFE"/>
<circle cx="660" cy="169.625" r="3" fill="#062EFE"/>
<circle opacity="0.3" cx="678" cy="139.625" r="9" fill="#062EFE"/>
<circle cx="678" cy="139.625" r="3" fill="#062EFE"/>
<circle opacity="0.3" cx="625" cy="138.625" r="9" fill="#062EFE"/>
<circle cx="625" cy="138.625" r="3" fill="#062EFE"/>
<circle opacity="0.3" cx="624" cy="98.625" r="9" fill="#062EFE"/>
<circle cx="624" cy="98.625" r="3" fill="#062EFE"/>
<circle opacity="0.3" cx="674" cy="228.625" r="9" fill="#062EFE"/>
<circle cx="674" cy="228.625" r="3" fill="#062EFE"/>
<circle opacity="0.3" cx="755" cy="188.625" r="9" fill="#062EFE"/>
<circle cx="755" cy="188.625" r="3" fill="#062EFE"/>
<circle opacity="0.3" cx="774" cy="206.625" r="9" fill="#062EFE"/>
<circle cx="774" cy="206.625" r="3" fill="#062EFE"/>
<circle opacity="0.3" cx="739" cy="198.625" r="9" fill="#062EFE"/>
<circle cx="739" cy="198.625" r="3" fill="#062EFE"/>
<circle opacity="0.3" cx="787" cy="247.625" r="9" fill="#062EFE"/>
<circle cx="787" cy="247.625" r="3" fill="#062EFE"/>
<circle opacity="0.3" cx="818" cy="162.625" r="9" fill="#062EFE"/>
<circle cx="818" cy="162.625" r="3" fill="#062EFE"/>
<circle opacity="0.3" cx="825" cy="205.625" r="9" fill="#062EFE"/>
<circle cx="825" cy="205.625" r="3" fill="#062EFE"/>
<circle opacity="0.3" cx="749" cy="235.625" r="9" fill="#062EFE"/>
<circle cx="749" cy="235.625" r="3" fill="#062EFE"/>
<circle opacity="0.3" cx="510" cy="315.625" r="9" fill="#062EFE"/>
<circle cx="510" cy="315.625" r="3" fill="#062EFE"/>
<circle opacity="0.3" cx="472" cy="357.625" r="9" fill="#062EFE"/>
<circle cx="472" cy="357.625" r="3" fill="#062EFE"/>
<circle opacity="0.3" cx="166" cy="354.625" r="9" fill="#062EFE"/>
<circle cx="166" cy="354.625" r="3" fill="#062EFE"/>
<circle opacity="0.3" cx="198" cy="368.625" r="9" fill="#062EFE"/>
<circle cx="198" cy="368.625" r="3" fill="#062EFE"/>
<circle opacity="0.3" cx="129" cy="378.625" r="9" fill="#062EFE"/>
<circle cx="129" cy="378.625" r="3" fill="#062EFE"/>
<circle opacity="0.3" cx="214" cy="293.625" r="9" fill="#062EFE"/>
<circle cx="214" cy="293.625" r="3" fill="#062EFE"/>
<circle opacity="0.3" cx="148" cy="304.625" r="9" fill="#062EFE"/>
<circle cx="148" cy="304.625" r="3" fill="#062EFE"/>
<circle opacity="0.3" cx="12" cy="161.625" r="9" fill="#062EFE"/>
<circle cx="12" cy="161.625" r="3" fill="#062EFE"/>
<circle opacity="0.3" cx="111" cy="241.625" r="9" fill="#062EFE"/>
<circle cx="111" cy="241.625" r="3" fill="#062EFE"/>
<circle opacity="0.3" cx="155" cy="184.625" r="9" fill="#062EFE"/>
<circle cx="155" cy="184.625" r="3" fill="#062EFE"/>
<circle opacity="0.3" cx="123" cy="178.625" r="9" fill="#062EFE"/>
<circle cx="123" cy="178.625" r="3" fill="#062EFE"/>
<circle opacity="0.3" cx="97" cy="263.625" r="9" fill="#062EFE"/>
<circle cx="97" cy="263.625" r="3" fill="#062EFE"/>
<circle opacity="0.3" cx="115" cy="289.625" r="9" fill="#062EFE"/>
<circle cx="115" cy="289.625" r="3" fill="#062EFE"/>
<circle opacity="0.3" cx="65" cy="198.625" r="9" fill="#062EFE"/>
<circle cx="65" cy="198.625" r="3" fill="#062EFE"/>
<circle opacity="0.3" cx="83" cy="189.625" r="9" fill="#062EFE"/>
<circle cx="83" cy="189.625" r="3" fill="#062EFE"/>
<circle opacity="0.3" cx="89" cy="215.625" r="9" fill="#062EFE"/>
<circle cx="89" cy="215.625" r="3" fill="#062EFE"/>
<circle opacity="0.3" cx="61" cy="178.625" r="9" fill="#062EFE"/>
<circle cx="61" cy="178.625" r="3" fill="#062EFE"/>
<circle opacity="0.3" cx="44" cy="194.625" r="9" fill="#062EFE"/>
<circle cx="44" cy="194.625" r="3" fill="#062EFE"/>
<circle opacity="0.3" cx="40" cy="175.625" r="9" fill="#062EFE"/>
<circle cx="40" cy="175.625" r="3" fill="#062EFE"/>
</svg>
